<?xml version="1.0" encoding="utf-8"?>
<!-- Generator: Adobe Illustrator 27.2.0, SVG Export Plug-In . SVG Version: 6.00 Build 0)  -->
<svg version="1.1" id="cow-bell" xmlns="http://www.w3.org/2000/svg" xmlns:xlink="http://www.w3.org/1999/xlink" x="0px" y="0px"
	 viewBox="0 0 1920 768" style="enable-background:new 0 0 1920 768;" xml:space="preserve">
<path id="bell" d="M897.3,234.2c0-4,0-7.8,0-11.6c0-7.5,5.3-12.6,13.1-12.6c9.6,0,19.3,0,28.9,0c7.7,0,13,5.1,13,12.5
	c0,3.8,0,7.6,0,11.6c4-0.2,7.5,0.7,10.3,3.3c7.1-5.1,14.4-3.6,18.8-0.3c5,3.7,7.1,10.1,5.1,16c-1.2,3.6-3.6,6.4-7.1,8.3
	c-3.4,1.8-7.1,2.2-11.1,1.4c0.3,3,0.6,5.9,0.9,8.7c1.2,11.6,2.4,23.1,3.7,34.7c1.2,11.3,2.4,22.6,3.6,34c0.3,3.2,0.8,6.6,0.4,9.8
	c-0.7,5.7-5.9,9.8-11.9,10c-3.3,0.1-6.6,0-9.8,0c-22.6,0-45.2-0.1-67.8,0c-5.5,0-10.1-1.3-13.5-6.2c-1.3,1.3-2.3,2.6-3.6,3.8
	c-3.2,3.1-7.9,3.2-10.9,0.3c-3-2.9-2.9-7.4,0.3-10.5c4.3-4.2,8.7-8.4,13-12.6c0.6-0.5,1-1.4,1.1-2.2c1.3-11.5,2.5-22.9,3.7-34.4
	c1.2-11.3,2.4-22.6,3.6-34c0.7-6.4,1.3-12.8,2.1-19.2c0.9-6.5,5.9-10.6,12.6-10.7C896.2,234.2,896.6,234.2,897.3,234.2L897.3,234.2z
	 M963.8,267.3c-0.6,0.6-1.1,1-1.5,1.3c-27.8,26.9-55.6,53.8-83.4,80.7c-0.1,0.1-0.3,0.3-0.4,0.4c-0.7,0.5-0.6,1-0.2,1.7
	c1.6,2.5,4,3.7,7,3.7c9,0,18,0,27,0c17.3,0,34.6,0,51.8,0c5,0,8.4-3.4,8-8c-0.8-8.2-1.7-16.4-2.6-24.6c-1.1-10.4-2.2-20.7-3.3-31.1
	C965.5,283.4,964.6,275.5,963.8,267.3L963.8,267.3z M959.3,241.3c-1.6-1.7-3.7-2.3-5.9-2.3c-19,0-38,0-57,0c-5.2,0-8.1,2.6-8.5,7.7
	c-0.3,3.5-0.7,6.9-1.1,10.4c-1.1,10.4-2.2,20.8-3.3,31.3s-2.2,20.8-3.3,31.3c-0.3,2.8-0.6,5.5-0.9,8.7c0.8-0.7,1.2-1.1,1.7-1.5
	c25-24.2,50.1-48.4,75.1-72.7c0.4-0.4,0.8-0.7,1.1-1.1c0.2-0.3,0.5-0.8,0.4-1.2C956.8,248.1,957.4,244.6,959.3,241.3L959.3,241.3z
	 M959.8,257.4c-0.1,0.1-0.3,0.2-0.4,0.4c-31.9,30.9-63.9,61.8-95.8,92.7c-0.3,0.3-0.7,0.6-0.9,1c-0.6,1-0.5,2,0.2,2.8
	c0.8,0.9,1.9,1.1,3,0.6c0.5-0.3,1-0.7,1.4-1.1c31.7-30.7,63.4-61.4,95.2-92.1c0.3-0.3,0.7-0.7,0.7-0.8
	C962,259.6,961,258.5,959.8,257.4L959.8,257.4z M909.8,234.1h29.9v-11.9h-29.9c0,0.4,0,0.8,0,1.1
	C909.8,226.9,909.8,230.5,909.8,234.1L909.8,234.1z M982.2,248.8c0-5.4-4.5-9.7-10-9.7c-5.5,0-10,4.3-10,9.7c0,5.3,4.5,9.6,9.9,9.6
	C977.7,258.4,982.2,254.1,982.2,248.8L982.2,248.8z M904.8,234.2c0-1.6,0-3.1,0-4.5c-0.2-12.6-0.3-12.5,12.7-12.3
	c6.6,0.1,13.2,0.2,19.8,0c5.7-0.2,7.9,1.8,7.5,7.3c-0.2,3.2,0,6.4,0,9.6h2.5c0-4.3,0.1-8.5,0-12.6c-0.1-3.7-3.4-6.6-7.2-6.6
	c-10.1,0-20.3-0.1-30.4,0c-4,0-7.2,3.2-7.3,7.1c0,1.9,0,3.7,0,5.6c0,2.2,0,4.4,0,6.6L904.8,234.2L904.8,234.2z M887.3,301.7
	c1.7,0.2,3.2,0.3,5,0.5c1.7-15.4,3.3-30.6,5-45.9c-1.7-0.2-3.2-0.3-5-0.5C890.6,271.1,889,286.3,887.3,301.7L887.3,301.7z"/>
</svg>
