<?xml version="1.0" encoding="utf-8"?>
<!-- Generator: Adobe Illustrator 27.2.0, SVG Export Plug-In . SVG Version: 6.00 Build 0)  -->
<svg version="1.1" id="disco-ball" xmlns="http://www.w3.org/2000/svg" xmlns:xlink="http://www.w3.org/1999/xlink" x="0px" y="0px"
	 viewBox="0 0 1920 768" style="enable-background:new 0 0 1920 768;" xml:space="preserve">
<path d="M981,288.7c0-7.3-0.1-13.9,0.1-20.5c0-1.4,1.3-2.8,2-4.2c0.7,1.5,1.8,2.9,1.9,4.4c0.2,6.4,0.1,12.9,0.1,19.8
	c1.5,0.2,2.8,0.5,4,0.5c3.7,0,7.8-0.9,7.4,5.8c-0.1,0.9,2.6,2.4,4.2,3.1c18.6,8.2,29.7,27.4,28.6,49.5c-1,20.9-14.5,39.1-33.2,44.9
	c-23.7,7.3-48.6-6.7-56.7-32c-8-25.1,3.6-52.3,26.5-62.4c2.8-1.3,5.9-1.9,5.4-6.6c-0.1-0.7,2-2.1,3.2-2.3
	C976.5,288.4,978.5,288.7,981,288.7L981,288.7z M980.7,341.8v-19.3c-4.4,0-8.5-0.2-12.5,0.1c-1.3,0.1-3.2,1.5-3.6,2.8
	c-1.4,5.2-2.3,10.6-3.5,16.4H980.7L980.7,341.8z M1004.7,341.5c-1.2-5.8-2.1-11.2-3.5-16.4c-0.3-1.1-2-2.6-3.1-2.6
	c-4.2-0.3-8.3-0.1-12.6-0.1v19.2H1004.7z M985.5,346.8v18c17.8,0.8,15.5,3.8,18.5-14.5c0.2-1,0-2.1,0-3.4H985.5L985.5,346.8z
	 M980.8,364.5v-17.7h-18.8c0.3,17.1,2.6,19.4,17.5,18.3C979.7,365,980,364.8,980.8,364.5L980.8,364.5z M1026.1,341.6
	c-2-6.5-2.9-13-5.9-17.8c-1.4-2.2-7.1-1.1-10.9-1.5c-1.3-0.1-2.6,0.1-4,0.2c1.2,6.5,2.3,12.7,3.4,19H1026.1L1026.1,341.6z
	 M940.2,341.8h16.7c1.2-6.5,2.3-12.7,3.4-19.4c-4.1,0-8-0.1-11.9,0.1c-1.1,0.1-2.9,0.9-3.2,1.8C943.4,329.9,942,335.6,940.2,341.8
	L940.2,341.8z M1005.7,365.1c4.5,0,8.4,0.2,12.3-0.1c1.3-0.1,3.2-1.1,3.5-2.2c1.7-5.1,2.9-10.3,4.5-16.1h-17.2
	C1007.8,352.8,1006.8,358.6,1005.7,365.1L1005.7,365.1z M960.4,365.1c-1.1-6.5-2.2-12.5-3.2-18.3h-16.7c1.4,5.4,2.3,10.3,3.9,14.9
	c0.5,1.5,2.8,3.1,4.4,3.3C952.5,365.4,956.3,365.1,960.4,365.1L960.4,365.1z M1017.3,318c-6.7-10.7-19.3-18.9-24.4-17
	c3,4.7,6,9.6,9.2,14.3c0.8,1.2,2.2,2.4,3.4,2.5C1009.1,318.2,1012.8,318,1017.3,318L1017.3,318z M1017.9,369.8
	c-4.9,0-8.5-0.2-12,0.1c-1.1,0.1-2.6,0.9-3.3,1.9c-3.6,5.5-7,11.1-10.5,16.7C1002.4,386.1,1010.7,380.1,1017.9,369.8L1017.9,369.8z
	 M948.9,369.8c5.6,9.9,16.6,17.6,24.6,18.1c-3.2-5.1-6.5-10.6-10.1-16c-0.7-1-2.1-1.9-3.2-2C956.7,369.6,953.2,369.8,948.9,369.8
	L948.9,369.8z M948.8,318c4.5,0,8,0.1,11.5-0.1c1,0,2.5-0.5,3-1.4c3.4-5.3,6.6-10.8,10.3-16.9C963.3,302.7,955.3,308,948.8,318
	L948.8,318z M985.4,386.3c0.4,0.4,0.9,0.7,1.3,1.1c4.1-5.4,8.1-10.9,12.9-17.2h-14.2V386.3z M966.3,317.6h14.5v-16.4
	c-0.4-0.3-0.8-0.5-1.2-0.8C975.5,305.7,971.4,311.1,966.3,317.6L966.3,317.6z M968.2,370c-0.3,0.5-0.6,0.9-0.9,1.4
	c4.1,5.3,8.2,10.6,12.4,15.9c0.3-0.3,0.7-0.6,1-0.8V370L968.2,370L968.2,370z M999.5,317.7c-4.9-6.3-8.9-11.5-12.9-16.7
	c-0.4,0.4-0.7,0.7-1.1,1.1v15.6H999.5z M929.7,287.9c-0.2-0.2-1.5,0.3-1.7,0.8c-0.2,0.8-0.2,2,0.2,2.5c3.3,3.7,6.7,7.4,10.2,10.8
	c0.5,0.5,2.2-0.4,5-1C938.1,295.8,934,291.8,929.7,287.9L929.7,287.9z M1025.3,378.3c-0.2,0.8-0.3,2,0.1,2.5
	c3.3,3.7,6.7,7.3,10.2,10.8c0.5,0.5,1.8,0,2.7-0.1c-0.1-1.1,0.1-2.6-0.5-3.3c-2.8-3.2-5.7-6.3-8.7-9.3c-0.6-0.6-1.3-1-2.2-1.7
	C1026.4,377.6,1025.5,377.8,1025.3,378.3L1025.3,378.3z M1037.8,288.1c-0.9,0-2.1,0.2-2.7,0.8c-3,3-6,6.1-8.7,9.3
	c-0.7,0.8-0.6,2.5-0.9,3.7c1.2-0.2,2.7,0,3.5-0.7c3.1-2.9,5.9-6.1,8.8-9.2c0.6-0.6,0.9-1.5,1.9-3.1
	C1039,288.6,1038.4,288,1037.8,288.1L1037.8,288.1z M1053,314.6c0.5-0.2,0.9-1.9,0.6-2.3c-0.5-0.7-1.8-1.4-2.4-1.2
	c-4.5,1.7-8.9,3.5-13.3,5.5c-0.6,0.3-1.1,1.8-1.1,2.7c0,0.5,1.1,1,1.8,1.6C1043.6,318.7,1048.4,316.7,1053,314.6L1053,314.6z
	 M938.7,377.8c-3.5,3.7-7.1,7.4-10.5,11.2c-0.4,0.4-0.3,2.2,0.1,2.4c0.8,0.4,2.2,0.7,2.7,0.2c3.5-3.5,6.9-7.1,10.2-10.8
	c0.5-0.5-0.3-2.3-0.5-3.6C939.3,377.6,938.9,377.6,938.7,377.8L938.7,377.8z M912.9,312.9c0,0.8,0.8,2.2,1.5,2.5
	c4.2,1.9,8.5,3.6,12.8,5.2c0.7,0.2,1.9-0.4,2.4-1c0.3-0.3-0.1-2.1-0.5-2.3c-4.6-2.2-9.3-4.3-14.2-6.5
	C914.1,311.5,913,312.2,912.9,312.9L912.9,312.9z M1049.4,341.2c2.2,0,4.4,0.2,6.6-0.1c0.9-0.1,1.7-1.3,2.5-2
	c-0.7-0.7-1.3-2.1-2-2.1c-4.7-0.1-9.5,0-14.2,0.3c-0.6,0-1.2,1.4-1.8,2.2c0.8,0.6,1.5,1.6,2.3,1.7c2.2,0.2,4.4,0.1,6.6,0.1
	C1049.4,341.3,1049.4,341.3,1049.4,341.2L1049.4,341.2z M1036.7,360.8c-0.1,0.9,0.4,2.4,1,2.6c4.5,2,9.1,3.9,13.7,5.6
	c0.6,0.2,1.8-0.6,2.2-1.3c0.3-0.4-0.2-2-0.7-2.3c-4.6-2.1-9.4-4.1-14.1-6.1C1037.9,359.9,1036.8,360.3,1036.7,360.8z M917.4,341.4
	c2.2,0,4.4,0.2,6.6-0.1c0.8-0.1,1.5-1.1,2.3-1.7c-0.6-0.8-1.2-2.2-1.8-2.2c-4.8-0.3-9.5-0.4-14.3-0.3c-0.6,0-1.7,1.3-1.8,2.1
	c0,0.6,1.1,1.9,1.8,2c2.4,0.2,4.8,0.1,7.2,0.1C917.4,341.2,917.4,341.3,917.4,341.4L917.4,341.4z M927,359.6
	c-4.2,1.5-8.3,3.1-12.4,5c-0.9,0.4-1.3,1.8-2,2.7c1.1,0.4,2.5,1.4,3.4,1c4-1.4,7.9-3.1,11.9-4.9c0.8-0.4,1.5-1.2,3.2-2.7
	C929.1,360.2,927.8,359.3,927,359.6L927,359.6z"/>
</svg>
