<?xml version="1.0" encoding="utf-8"?>
<!-- Generator: Adobe Illustrator 27.2.0, SVG Export Plug-In . SVG Version: 6.00 Build 0)  -->
<svg version="1.1" id="Drums" xmlns="http://www.w3.org/2000/svg" xmlns:xlink="http://www.w3.org/1999/xlink" x="0px" y="0px"
	 viewBox="0 0 1920 768" style="enable-background:new 0 0 1920 768;" xml:space="preserve">
<path id="drum_sticks" d="M900.7,329.1c17.2,16,34.4,32.1,51.5,48.1c0.6,0.6,0.9,1.1,0.8,2c-0.6,3.2,2,6,5.5,6.2
	c3.4,0.2,6.1-2.5,6-5.7c-0.1-3.1-3.1-5.5-6.4-5c-1.1,0.2-1.7-0.1-2.4-0.8c-17.1-16-34.3-32-51.5-48.1c-0.2-0.2-0.4-0.4-0.6-0.5
	c-1.2,1.1-2.3,2.2-3.5,3.3C900.2,328.8,900.5,328.9,900.7,329.1L900.7,329.1z M1045.8,325.6c-8.9,8.3-17.9,16.7-26.8,25
	c-8.4,7.8-16.7,15.6-25.1,23.4c-0.5,0.4-0.9,0.6-1.6,0.5c-0.7-0.1-1.5-0.1-2.2,0c-3.2,0.6-5.2,3.3-4.6,6.3c0.6,2.9,3.6,4.9,6.7,4.4
	c3.1-0.5,5.2-3.2,4.7-6.2c-0.1-0.8,0.1-1.3,0.7-1.8c16.1-15.1,32.3-30.1,48.4-45.2c1.3-1.2,2.7-2.4,4-3.6c-1.3-1.2-2.4-2.2-3.6-3.4
	C1046.2,325.2,1046,325.4,1045.8,325.6L1045.8,325.6z"/>
<path id="drum" d="M927.4,397.7c0-0.4,0.1-0.8,0.1-1.2h4.9c0,0.6,0.1,1.2,0,1.7c-0.1,0.7,0.2,1,0.9,1.1c6.4,1.5,12.8,2.5,19.4,3.2
	c2.5,0.2,5,0.4,7.5,0.6c0.4,0,0.8,0,1.2,0c0-0.1,0.1-0.2,0.1-0.3c0.1-1.1,0.7-1.7,1.9-1.7c1,0,2,0,3.1,0v2.2c0.4,0,0.7,0.1,0.9,0.1
	c9.1,0.3,18.1,0,27.1-0.8c1.1-0.1,0.7-0.8,0.9-1.5c1.5,0,3,0,4.5,0c0.2,0,0.4,0.4,0.7,0.7c1.9-0.3,3.9-0.6,5.9-0.9
	c5.9-1,11.6-2.3,17.2-4.2c0.8-0.3,1.1-0.6,1-1.4c-0.1-0.5,0-1,0-1.7c1.6,0,3.1,0,4.6,0c0.2,0,0.3,0.4,0.6,0.7
	c0.4-0.2,0.9-0.4,1.4-0.7c3.2-1.6,6.3-3.3,8.7-6c2.9-3.2,2.9-6.3,0-9.6c-2.4-2.7-5.6-4.4-8.8-6c-5.7-2.7-11.8-4.4-18-5.8
	c-0.5-0.1-0.9-0.2-1.6-0.4c1.2-1.1,2.2-2,3.2-3c0.7-0.7,1.3-0.8,2.2-0.6c7.3,1.8,14.4,4.1,20.8,7.9c2.6,1.6,5,3.4,6.8,5.8
	c1.7,2.1,2.5,4.5,2.5,7.2c0,22.3,0,44.5,0,66.8c0,0.4,0.2,1-0.6,1c-0.1,0-0.2,0.2-0.3,0.3c-1.8,3.8-5,6.5-8.7,8.6
	c-2.2,1.3-4.5,2.3-6.8,3.4c-0.7,0.4-1.6,0.6-1.1,1.7c-0.3,0.1-0.6,0.1-0.8,0.1c-1.9-0.2-3.6,0.3-5.4,0.9c-7,2.2-14.3,3.6-21.6,4.6
	c-0.2,0-0.5,0.1-0.7,0.1c-0.8,0-1.1,0.3-0.9,1c0,0.2,0,0.5-0.1,0.7h-4.8c-0.1-0.3-0.1-0.6-0.2-1c-9.5,0.9-19,1.2-28.7,0.9v2.3h-5
	c0-0.6,0-1.2,0-1.7c0.1-0.7-0.2-0.9-0.9-0.9c-5.9-0.6-11.9-1.2-17.8-1.9c-3.2-0.4-6.3-1.2-9.4-1.8c-0.3-0.1-0.6-0.1-0.9-0.2
	c0,0.4-0.1,0.7-0.1,1h-4.8c0-0.4-0.1-0.9-0.1-1.3c0.1-0.7-0.2-1.1-1-1.3c-5-1.4-9.8-3.2-14.3-5.7c-3.6-2-6.9-4.3-9.1-7.7
	c-1.2-1.9-1.9-3.9-1.9-6.1c0-22.1,0-44.3,0-66.4c0-0.6,0.5-0.8,0.6-1.2c1.7-4.3,5.2-7,9.2-9.4c4.9-2.9,10.3-4.9,15.8-6.5
	c2-0.6,4-1.1,6.1-1.6c0.3-0.1,0.7-0.1,0.9,0c1.3,1.2,2.6,2.4,3.9,3.6c-2.2,0.5-4.1,0.9-6.1,1.4c-6.3,1.6-12.5,3.6-18.1,6.9
	c-2.1,1.2-4.1,2.7-5.6,4.5c-2.4,2.9-2.4,5.7,0,8.6c1.8,2.2,4.2,3.8,6.8,5.2c3.8,2.1,7.9,3.6,12.1,4.9
	C926.9,397.7,927.1,397.7,927.4,397.7L927.4,397.7z M961.4,407.9c-9.8-0.6-19.4-1.8-29-4c0,0.4,0,0.7,0,1c0,19.3,0,38.5,0,57.8
	c0,0.7,0.2,0.9,0.9,1.1c7.8,1.9,15.8,3,23.9,3.6c1.4,0.1,2.8,0.2,4.3,0.3L961.4,407.9L961.4,407.9z M1000.3,466.5c0.2,0,0.3,0,0.4,0
	c7.9-1,15.6-2.6,23.2-5.1c0.7-0.2,0.7-0.6,0.7-1.2c0-19.2,0-38.4,0-57.6c0-0.3,0-0.6,0-1c-8,2.5-16.1,4-24.3,5.1V466.5L1000.3,466.5
	z M947.5,364.2c0.1,0.1,0.5,0.1,0.8,0.1c4.3-0.4,8.6-0.9,12.9-1.2c13-0.8,25.9-0.5,38.8,1.2c1.3,0.2,2.1-0.1,2.9-0.9
	c0.9-1,1.9-1.8,3.1-2.9c-14.3-2.3-28.4-2.8-42.6-2.2c-6.6,0.3-13.3,0.9-20,2C944.8,361.7,946.2,363,947.5,364.2L947.5,364.2z"/>
</svg>
