<?xml version="1.0" encoding="utf-8"?>
<!-- Generator: Adobe Illustrator 27.2.0, SVG Export Plug-In . SVG Version: 6.00 Build 0)  -->
<svg version="1.1" id="electric-gutair" xmlns="http://www.w3.org/2000/svg" xmlns:xlink="http://www.w3.org/1999/xlink" x="0px"
	 y="0px" viewBox="0 0 1920 768" style="enable-background:new 0 0 1920 768;" xml:space="preserve">
<path id="gutair" d="M976.1,265.3c-0.2-1.1-0.3-1.9-0.5-2.8c-0.4-2.4,0.2-3.3,2.5-3.9c7.6-1.9,15.3-3.7,23-5.5
	c2.2-0.5,4.5-1.1,6.7-1.6c1.6-0.4,2.7,0.1,3.2,1.3c0.5,1.2,0.1,2.3-1.2,3.3c-7,5-14.1,10-21.1,15.1c-1.1,0.8-2.1,1.8-2.9,2.9
	c-10,15.3-19.9,30.6-29.8,45.9c-0.7,1.1-1.3,2.5-1.6,3.8c-5.8,24.8-11.6,49.7-17.4,74.6c-0.1,0.4-0.1,1-0.3,1.3
	c-0.6,0.7-1.2,1.6-1.9,1.7c-0.7,0.1-1.8-0.5-2.3-1.1c-1-1.2-1.7-2.7-2.5-4.1c-4.5-7.8-9-15.5-13.5-23.3c-0.5-0.9-1.1-1.1-2.1-1.1
	c-9.5,0.8-19,1.5-28.5,2.3c-7.1,0.6-14.2,1.1-21.3,1.7c-0.6,0-1.4,0.2-1.8-0.2c-0.7-0.5-1.5-1.3-1.5-2c0-0.8,0.6-2,1.2-2.5
	c2.7-2.1,5.6-4,8.4-6c21.2-15,42.4-30,63.6-45c2.6-1.8,5.3-3.7,7.8-5.6c0.6-0.4,1.1-1,1.5-1.6c10.5-15.4,21-30.9,31.5-46.3
	C975.7,266.2,975.9,265.7,976.1,265.3L976.1,265.3z M947,334.4c-0.1,0-0.2-0.1-0.3-0.1c-1,1.5-2,3.1-3,4.6c-1.3,2-2.4,2.2-4.3,0.9
	c-2.3-1.6-4.5-3.2-6.8-4.8c-1.8-1.3-2-2.5-0.7-4.3c1-1.5,2-2.9,3-4.4c-0.1-0.1-0.1-0.2-0.2-0.2c-20.7,14.6-41.3,29.3-62.3,44.1
	c0.9,0,1.4,0,1.9,0c13.9-1.1,27.9-2.2,41.8-3.3c1.8-0.1,2.8,0.5,3.7,2c4.2,7.4,8.5,14.8,12.8,22.2c0.3,0.4,0.5,0.9,1,1.6
	C938.1,372.9,942.6,353.7,947,334.4L947,334.4z M940.7,334.7c13.8-21.2,27.5-42.2,41.2-63.4c-0.9-0.6-1.7-1.2-2.6-1.8
	c-14.2,20.9-28.3,41.6-42.4,62.5C938.2,332.9,939.4,333.8,940.7,334.7L940.7,334.7z M996.3,259.7c0-0.1-0.1-0.2-0.1-0.4
	c-5.2,1.2-10.4,2.5-15.8,3.8c0.4,0.8,0.5,1.4,0.9,1.7c1.1,0.9,2.2,1.6,3.4,2.4c0.2,0.2,0.8,0.1,1,0
	C989.3,264.8,992.8,262.3,996.3,259.7L996.3,259.7z M915.2,355.9c-0.6,1.2,0,2.2,1,3c2.4,1.8,4.9,3.5,7.3,5.2
	c1.3,0.9,2.8,0.7,3.5-0.4c0.9-1.2,0.5-2.7-0.9-3.7c-2.3-1.7-4.6-3.3-7-4.9c-0.5-0.4-1.2-0.6-2.1-1
	C916.4,354.6,915.6,355.1,915.2,355.9L915.2,355.9z M922.1,345.6c-0.6,1.1,0,2.2,1,2.9c2.4,1.7,4.8,3.4,7.2,5.1c1.5,1,3,0.9,3.7-0.3
	c0.8-1.3,0.5-2.6-1-3.7c-2.3-1.7-4.6-3.3-7-4.9c-0.5-0.4-1.1-0.6-2-1C923.4,344.3,922.5,344.8,922.1,345.6L922.1,345.6z
	 M935.3,367.7c0-1.4-1.1-2.5-2.4-2.5c-1.3,0-2.3,1.1-2.3,2.4c0,1.3,1,2.4,2.3,2.4C934.2,370,935.2,369,935.3,367.7L935.3,367.7z
	 M933,375.1c0.1-1.4-1-2.5-2.3-2.5c-1.3,0-2.3,1.1-2.3,2.4c0,1.3,1.1,2.4,2.3,2.4C931.9,377.4,933,376.4,933,375.1L933,375.1z"/>
</svg>
