<?xml version="1.0" encoding="utf-8"?>
<!-- Generator: Adobe Illustrator 27.2.0, SVG Export Plug-In . SVG Version: 6.00 Build 0)  -->
<svg version="1.1" id="Layer_1" xmlns="http://www.w3.org/2000/svg" xmlns:xlink="http://www.w3.org/1999/xlink" x="0px" y="0px"
	 viewBox="0 0 1920 768" style="enable-background:new 0 0 1920 768;" xml:space="preserve">
<path d="M1054.9,358.5c1-3.1,1.6-6.3,3-9.3c4.1-8.6,10.7-14.7,19.8-17.7c4.4-1.4,8.9-2.6,13.4-3.4c5.7-1,9.1-4.4,11.3-9.5
	c1.4-3.3,2.6-6.7,4.9-9.6c5.5-6.9,15-9.8,23.3-6.8c3.6,1.3,7,3.3,10.5,5c0,0.1-0.1,0.3-0.1,0.4c0.3-0.3,0.7-0.6,1-0.9
	c7.6-7.3,15.1-14.6,22.7-21.8c1.7-1.6,3-3.3,3.9-5.4c0.6-1.4,1.3-2.7,2-4c-1.8-2.5-2-3.5-1-4.6c1-1,2-0.9,4,0.3
	c0.8-0.8,1.6-1.5,2.4-2.3c-1.3-1.9-1.4-3.1-0.3-4.1c1-1,2-0.8,4,0.5c0.8-0.8,1.5-1.6,2.3-2.4c-1.3-2-1.3-3.1-0.2-4.1
	c1-0.9,2.1-0.8,3.8,0.4c0.9-0.5,1.8-1,2.7-1.6c1.2,0,2.3,0,3.5,0c3,0.7,5.8,1.9,8.1,4c3.1,2.9,4.9,6.4,5,10.7
	c0.1,2.3-0.1,2.8-1.6,4.5c1.3,2.2,1.3,3.2,0.3,4.1c-1.1,0.9-2.1,0.8-3.9-0.6c-0.8,0.8-1.5,1.7-2.3,2.6c1.2,1.9,1.3,2.9,0.3,3.9
	c-1,1-2.1,0.8-4-0.4c-0.7,0.8-1.5,1.6-2.3,2.4c1.2,2.2,1.3,3.2,0.1,4.1c-1.2,0.9-2.2,0.7-4.3-1.2c-3.4,1.8-7,3.2-9.8,6.2
	c-7,7.6-14.3,15-21.5,22.4c-0.3,0.3-0.6,0.6-0.5,0.9c1.7,3.5,3.6,6.9,4.9,10.5c3.7,10.3-1.5,21.8-11.5,26.2
	c-3.1,1.4-6.2,2.8-9.2,4.5c-2.7,1.6-4.1,4.3-4.8,7.4c-1.1,4.8-2,9.7-3.6,14.3c-3.8,11.4-11.7,18.8-23.1,22.3
	c-7.1,2.2-14.1,0.9-20.6-2.4c-12.9-6.6-22.8-16.5-29.4-29.4c-1.7-3.3-2.7-6.8-3.1-10.5c0-0.3-0.2-0.7-0.2-1
	C1054.9,361.8,1054.9,360.2,1054.9,358.5L1054.9,358.5z M1137.5,311c-2.3-1.2-4.2-2.4-6.3-3.4c-9.3-4.2-19.1-0.2-22.9,9.2
	c-0.5,1.3-1.1,2.6-1.6,3.9c-2.7,6.5-7.2,10.8-14.3,12.1c-2.3,0.4-4.6,0.9-6.9,1.4c-7,1.6-13.5,4.2-18.4,9.8
	c-7.4,8.3-9.5,17.5-5,27.9c2.4,5.7,6.1,10.5,10.3,15c5,5.3,10.5,10,17.1,13.1c4.6,2.2,9.5,3.5,14.6,2.7c9.9-1.7,16.9-7.4,21.3-16.4
	c2.3-4.7,3.3-9.8,4.2-14.9c1.2-7,4.8-12.1,11.4-15c1.6-0.7,3.2-1.4,4.9-2c11.4-4.5,14.7-18,5.4-29.1c-0.3,0.4-0.5,0.8-0.8,1.1
	c-4.3,4.5-8.6,8.9-12.9,13.4c-0.8,0.8-1.2,1.7-1.2,2.8c-0.4,9.3-9.4,16.2-18.5,14.2c-7.5-1.7-12.8-8.7-12.2-16
	c0.7-8.1,6.8-14,14.9-14.3c0.5,0,1.2-0.1,1.6-0.5C1127.2,321,1132.2,316.2,1137.5,311L1137.5,311z M1135,335.3
	c13.4-14,26.7-27.8,39.9-41.5c-2.1-2.1-4.1-4.1-6.2-6.2c-13.7,13.2-27.5,26.5-41.4,39.9C1130.8,329.3,1133.3,331.8,1135,335.3z
	 M1189.9,262.7c-0.2,0.1-0.9,0.4-1.4,0.8c-3,2.9-5.8,6.1-8.9,8.8c-3.3,2.9-5.5,6.5-7.2,10.5c-0.2,0.4-0.1,1.2,0.2,1.5
	c1.9,2,3.8,3.9,5.8,5.8c0.2,0.2,0.8,0.5,1,0.4c2.5-1.3,5.3-2.2,7.4-4c4.4-3.9,8.4-8.2,12.6-12.5c0.4-0.4,0.7-1.2,0.7-1.8
	C1199.8,267.4,1195.2,262.9,1189.9,262.7L1189.9,262.7z M1120.9,352.1c5.8,0,10.6-4.7,10.6-10.6c0.1-5.5-4.7-10.4-10.3-10.5
	c-5.8-0.1-10.7,4.6-10.7,10.5C1110.5,347.3,1115.1,352.1,1120.9,352.1L1120.9,352.1z M1075.8,360.2c-0.6,1-0.1,2,0.7,2.8
	c7.5,7.5,15,15,22.4,22.4c1.2,1.2,2.6,1.2,3.6,0.2c1-1,0.9-2.5-0.2-3.6c-7.4-7.5-14.9-14.9-22.3-22.3c-0.5-0.5-1.3-0.8-2.2-1.3
	C1077,359,1076.2,359.4,1075.8,360.2L1075.8,360.2z"/>
</svg>
