<?xml version="1.0" encoding="utf-8"?>
<!-- Generator: Adobe Illustrator 27.2.0, SVG Export Plug-In . SVG Version: 6.00 Build 0)  -->
<svg version="1.1" id="Maracas" xmlns="http://www.w3.org/2000/svg" xmlns:xlink="http://www.w3.org/1999/xlink" x="0px" y="0px"
	 viewBox="0 0 1920 768" style="enable-background:new 0 0 1920 768;" xml:space="preserve">
<path d="M991.2,391.9c17.4-4,34.5-8,51.8-12.1c-0.1,0.4-0.1,0.8-0.2,1.1c-1.6,6.6-4.6,12.5-9.9,17.3c-0.2,0.2-0.3,0.8-0.2,1.1
	c1.6,6,3.3,12,4.9,18.1c4,14.7,8,29.4,12,44.1c1.2,4.6-1.1,9.1-5.7,10.9c-5.7,2.3-12.2-0.6-13.7-6.2c-2.4-8.7-4.8-17.4-7.1-26
	c-3.2-11.7-6.4-23.4-9.6-35c-0.1-0.5-0.2-0.9-0.9-1c-7.1-1-12.9-4.3-18-8.9C993.5,394.3,992.5,393.2,991.2,391.9L991.2,391.9z
	 M902.2,382.3c2.6,7.6,6.9,14.2,14.4,18.5c0.5,0.3,0.6,0.6,0.6,1.1c-0.6,3.8-1.2,7.6-1.8,11.4c-2.7,16.8-5.4,33.6-8,50.4
	c-0.2,1.3-0.2,2.7,0.1,3.9c1,4.4,5.3,7.5,10.2,7.3c4.9-0.2,8.9-3.5,9.6-8.2c0.3-2.2,0.7-4.4,1-6.6c2-12.8,4.1-25.7,6.1-38.5
	c1-6.1,1.9-12.1,2.9-18.2c0.1-0.4,0.3-0.9,0.6-1c6.8-2.5,11.9-6.9,16.1-12.3c0.3-0.3,0.5-0.7,0.8-1.2c-17.7-2.4-35.1-4.8-52.7-7.1
	C902.2,382.2,902.2,382.3,902.2,382.3L902.2,382.3z M990.4,360.3c3.9,2.8,7.6,5.5,11.4,8.3c2-4.1,3.9-8.1,5.8-12.3
	c3.8,2.8,7.5,5.5,11.4,8.3c1.9-4.1,3.8-8.1,5.8-12.3c3.9,2.8,7.6,5.5,11.4,8.3c1.3-2.7,2.5-5.2,3.6-7.7c0.2-0.4,0.2-1,0-1.4
	c-1.2-2.4-2.5-4.8-3.7-7.2c-0.4-0.8-0.9-0.9-1.8-0.7c-18,4.2-36,8.4-54.1,12.6c-0.7,0.2-1,0.4-1.1,1.1c-0.1,3.9,0.2,7.7,0.9,11.6
	c0,0.2,0.1,0.5,0.3,0.6c1.4,1,2.7,2,4.2,3.1C986.6,368.4,988.5,364.4,990.4,360.3L990.4,360.3z M956.7,368.7c2.2-2,4.4-3.9,6.6-5.9
	c0.2-0.2,0.3-0.6,0.3-0.8c-0.2-2.8-0.4-5.6-0.6-8.5c0-0.6-0.4-0.8-1-0.9c-0.9-0.1-1.9-0.2-2.8-0.4c-10.1-1.4-20.1-2.7-30.2-4.1
	c-7.4-1-14.8-2-22.2-3c-1-0.1-1.4,0.1-1.8,0.9c-1.6,3.4-2.9,6.9-3.8,10.5c-0.1,0.3-0.2,0.6,0,0.8c0.8,1.4,1.7,2.9,2.6,4.4
	c3.5-3.1,6.9-6.2,10.4-9.3c2.4,3.9,4.7,7.8,7.1,11.7c3.5-3.1,6.9-6.2,10.4-9.3c2.4,4,4.7,7.8,7.1,11.7c3.5-3.1,6.9-6.2,10.4-9.3
	c2.4,3.9,4.7,7.7,7,11.5C956.6,368.7,956.7,368.7,956.7,368.7L956.7,368.7z M980.3,350.7c17.1-4,34.3-8,51.5-12
	c-0.1-0.2-0.1-0.3-0.2-0.4c-4.3-4.8-9.3-8.6-15.7-10.8c-7.9-2.7-15.5-2-22.6,2.4c-5.3,3.3-8.7,8-10.9,13.4c-0.9,2.3-1.6,4.7-2.4,7
	C980,350.6,980.1,350.6,980.3,350.7L980.3,350.7z M961.5,347.1c-0.1-0.3-0.1-0.5-0.1-0.6c-1.7-5-4.2-9.5-8-13.4
	c-7.8-8-18.7-10.2-29.1-5.9c-6,2.5-10.6,6.5-14.4,11.4c-0.3,0.4-0.7,0.9-1.1,1.5C926.5,342.4,943.9,344.8,961.5,347.1L961.5,347.1z
	 M1027.1,360.7c-2,4.1-3.8,8.1-5.8,12.3c-3.8-2.8-7.6-5.5-11.4-8.3c-2,4.2-3.9,8.2-5.8,12.3c-3.8-2.8-7.6-5.5-11.4-8.3
	c-2,4.1-3.8,8.2-5.8,12.2c-1.4-1-2.6-1.9-3.8-2.7c-0.1,0.3,0,0.5,0.1,0.7c1.3,2.5,2.6,5,3.9,7.5c0.3,0.7,0.8,0.8,1.6,0.6
	c4.6-1.1,9.3-2.2,13.9-3.3c13.4-3.1,26.9-6.3,40.3-9.4c0.7-0.2,1-0.4,1-1.1c-0.2-3.4-0.4-6.8-0.6-10.2c-0.1-0.9-0.3-1.8-0.5-2.7
	c-0.1,0-0.2,0-0.2,0c-1.3,2.8-2.7,5.6-4.1,8.6C1034.6,366.2,1030.9,363.5,1027.1,360.7L1027.1,360.7z M900,366.8c0.2,3,0.4,6,0.6,9
	c0,0.6,0.4,0.7,0.9,0.7c5.9,0.8,11.7,1.6,17.6,2.4c12.7,1.7,25.3,3.4,38,5.2c0.7,0.1,1-0.1,1.3-0.7c1.8-3.6,3.1-7.3,4-11.2
	c0.1-0.4,0.1-0.8,0.2-1.1c-0.1,0-0.1-0.1-0.2-0.1c-2.4,2.1-4.8,4.3-7.3,6.5c-2.4-3.9-4.7-7.7-7.1-11.7c-3.5,3.1-6.9,6.2-10.4,9.3
	c-2.4-3.9-4.7-7.8-7.1-11.7c-3.5,3.1-6.9,6.2-10.4,9.3c-2.4-4-4.7-7.8-7.1-11.7c-3.5,3.2-6.9,6.2-10.4,9.3c-0.8-1.4-1.6-2.6-2.5-4
	C900,366.6,900,366.7,900,366.8L900,366.8z"/>
</svg>
