<?xml version="1.0" encoding="utf-8"?>
<!-- Generator: Adobe Illustrator 27.2.0, SVG Export Plug-In . SVG Version: 6.00 Build 0)  -->
<svg version="1.1" id="Layer_1" xmlns="http://www.w3.org/2000/svg" xmlns:xlink="http://www.w3.org/1999/xlink" x="0px" y="0px"
	 viewBox="0 0 1920 768" style="enable-background:new 0 0 1920 768;" xml:space="preserve">
<path d="M988,437.7c-21.5,0-42.9,0-64.4,0c-6.1,0-9.1-3.2-9.1-9.6c0-35,0-70,0-105c0-7,2.1-13.4,5.7-19.2
	c7.1-11.7,17.9-16.1,30.8-16.3c5.6-0.1,11,0.6,16.3,2.6c7.2,2.7,12.5,7.8,16.8,14.3c4.8,7.3,7.9,15.5,11,23.7
	c3.1,8.1,6.9,15.8,11.4,23.1c5.3,8.5,12.7,13,22.1,14.4c4.3,0.6,8.6,0.9,12.9,1.7c9.2,1.6,15.3,7.4,18.8,16.2
	c3.9,9.5,4.5,19.5,4.1,29.7c-0.2,5.2-0.8,10.4-1.4,15.6c-0.6,5.2-4.7,8.8-9.9,8.8c-5.9,0-11.8,0-17.7,0
	C1019.6,437.7,1003.8,437.7,988,437.7L988,437.7z M920.9,429.7h133.3v-30.2h-11.7v22.1h-8.4v-22.1h-6.7v22.1h-8.4v-22.1h-6.7v22.1
	h-8.3v-22.1h-6.8v22.1h-8.3v-22.1H982v22.1h-8.2v-22.1H967v22.1h-8.3v-22.1h-6.8v22.1h-8.4v-22.1h-6.8v22.1h-8.3v-22.2h-7.6
	L920.9,429.7L920.9,429.7z"/>
</svg>
