<?xml version="1.0" encoding="utf-8"?>
<!-- Generator: Adobe Illustrator 27.2.0, SVG Export Plug-In . SVG Version: 6.00 Build 0)  -->
<svg version="1.1" id="trumpt" xmlns="http://www.w3.org/2000/svg" xmlns:xlink="http://www.w3.org/1999/xlink" x="0px" y="0px"
	 viewBox="0 0 1920 768" style="enable-background:new 0 0 1920 768;" xml:space="preserve">
<path id="tube" d="M1055.4,401.5c-0.2,0.2-0.4,0.3-0.6,0.5c-2.5,2.4-5,4.8-7.5,7.3c-0.4,0.4-0.6,0.8-0.4,1.4c0.8,2,0,4.1-1.8,5.3
	c-1.8,1.1-4.1,1-5.7-0.5c-3-2.9-6-5.8-9-8.7c-1.4-1.4-1.7-3.1-0.9-4.8c0.8-1.8,2.2-2.6,4.2-2.7c0.4,0,1-0.2,1.3-0.5
	c10.7-10.3,21.4-20.7,32.1-31c0.2-0.2,0.3-0.4,0.4-0.5c-0.9-0.9-1.8-1.7-2.8-2.7c-0.8,0.9-1.7,1.9-2.6,2.9c-1.2-1.2-2.2-2.2-3.1-3.1
	c2.6-2.5,5.3-5,7.9-7.6c0.8,0.9,1.8,1.9,2.9,3c-0.8,0.7-1.8,1.4-2.7,2.2c1.1,1.1,2,1.9,2.9,2.7c2.4-2.3,4.8-4.7,7.3-7.1
	c-0.8-0.8-1.7-1.6-2.7-2.6c-0.8,0.9-1.6,1.8-2.5,2.8c-1.2-1.2-2.2-2.2-3.2-3.2c2.5-2.5,5.2-5,7.8-7.5c0.9,0.9,1.9,1.9,3,3
	c-0.9,0.8-1.9,1.6-2.8,2.4c1.1,1.1,2,1.9,2.9,2.7c2.3-2.2,4.7-4.6,7.1-6.8c-0.8-0.8-1.7-1.7-2.7-2.7c-0.8,0.9-1.7,1.9-2.6,2.8
	c-1.2-1.2-2.2-2.2-3.2-3.2c2.6-2.5,5.3-5,7.9-7.5c0.9,0.9,2,1.9,3.1,3c-0.9,0.8-1.9,1.6-2.8,2.4c1,1,1.9,1.8,2.7,2.6
	c2.4-2.4,4.9-4.8,7.3-7.2c-0.7-0.7-1.6-1.5-2.6-2.5c-0.8,0.8-1.6,1.8-2.5,2.8c-1.2-1.2-2.2-2.2-3.1-3.2c2.6-2.5,5.2-5,7.9-7.6
	c0.8,0.8,1.9,1.9,3,3c-0.9,0.7-1.9,1.5-2.8,2.3c1.1,1.1,1.9,1.9,3,2.9c1.6-1.6,3.1-3.1,4.7-4.7c6.9-6.7,13.8-13.4,20.7-20
	c0.7-0.7,1.1-1.4,1.3-2.3c2-9.1,3.9-18.2,4.5-27.5c0.2-2.8,0.2-5.6-0.5-8.4c-0.6-2.2,1.5-4.1,3.7-3.2c1.9,0.8,3.6,1.9,5.3,3.1
	c6.2,4.6,11.9,9.8,17.5,15.2c6.4,6.1,12.6,12.4,18,19.2c1.3,1.6,2.4,3.3,3.4,5c0.6,0.9,0.9,2.1,1,3.2c0.1,2.3-2.2,3.9-4.4,3.1
	c-4-1.5-8-1.3-12.1-1.1c-8.2,0.6-16.2,2.1-24.1,4.1c-0.2,0.1-0.5,0.1-0.7,0.3c-1.4,1.4-2.9,2.8-4.4,4.3c0.9,0.4,1.8,0.8,2.7,1.2
	c17.8,8.5,21.7,31.3,7.7,45c-13.4,13.1-26.8,26-40.3,39c-5.9,5.7-13.1,8.6-21.4,8.3c-12.1-0.5-20.8-6.1-25.9-16.8
	c-0.2-0.5-0.5-1.1-0.7-1.6C1055.5,401.6,1055.5,401.6,1055.4,401.5L1055.4,401.5z M1085.6,403.5c4.5,0,7.9-1.4,10.6-4
	c3.2-3.1,6.4-6.2,9.6-9.2c8.3-8,16.6-16,24.8-24c3.3-3.2,4.6-7.3,3.8-11.8c-1-5.4-4.2-9.2-9.6-10.8c-5.4-1.7-10.3-0.5-14.4,3.4
	c-3.9,3.7-7.8,7.5-11.7,11.3c-7.6,7.3-15.3,14.6-22.7,22.1c-4.2,4.2-5.2,9.4-2.8,14.8C1075.6,400.6,1080.2,403.2,1085.6,403.5
	L1085.6,403.5z"/>
<path id="Air_tubes" d="M1115.5,409.4l-1.9,1.8c-1.1,1.1-2.9,1.1-4,0l-36.1-35c-1.1-1.1-1.1-2.8,0-3.9l1.9-1.8c1.1-1.1,2.9-1.1,4,0
	l36.1,35C1116.6,406.6,1116.6,408.4,1115.5,409.4L1115.5,409.4z M1144.1,378.9l-36.1-35c-1.1-1.1-2.9-1.1-4,0l-1.9,1.8
	c-1.1,1.1-1.1,2.8,0,3.9l36.1,35c1.1,1.1,2.9,1.1,4,0l1.9-1.8C1145.2,381.7,1145.2,380,1144.1,378.9L1144.1,378.9z M1132.9,388.1
	l-36.1-35c-1.1-1.1-2.9-1.1-4,0l-1.9,1.8c-1.1,1.1-1.1,2.8,0,3.9l36.1,35c1.1,1.1,2.9,1.1,4,0l1.9-1.8
	C1134,390.9,1134,389.2,1132.9,388.1L1132.9,388.1z M1124.3,397l-36.1-35c-1.1-1.1-2.9-1.1-4,0l-1.9,1.8c-1.1,1.1-1.1,2.8,0,3.9
	l36.1,35c1.1,1.1,2.9,1.1,4,0l1.9-1.8C1125.4,399.8,1125.4,398.1,1124.3,397L1124.3,397z"/>
</svg>
